<?xml version="1.0" standalone="no"?>
<!DOCTYPE svg PUBLIC "-//W3C//DTD SVG 20010904//EN"
 "http://www.w3.org/TR/2001/REC-SVG-20010904/DTD/svg10.dtd">
<svg version="1.0" xmlns="http://www.w3.org/2000/svg"
 width="434.000000pt" height="569.000000pt" viewBox="0 0 434.000000 569.000000"
 preserveAspectRatio="xMidYMid meet">
<metadata>
Created by potrace 1.12, written by Peter Selinger 2001-2015
</metadata>
<g transform="translate(0.000000,569.000000) scale(0.100000,-0.100000)"
fill="#000000" stroke="none">
<path d="M1985 5297 c-155 -8 -315 -33 -505 -78 -210 -50 -252 -65 -341 -126
-105 -71 -330 -286 -386 -370 -76 -113 -133 -222 -144 -275 -6 -29 -26 -97
-45 -151 -56 -160 -83 -284 -94 -431 -13 -176 -6 -244 61 -590 l21 -109 -38
-38 -37 -38 37 -136 c21 -75 51 -175 68 -223 22 -65 32 -114 37 -194 l7 -107
48 -71 c49 -71 98 -120 119 -120 7 1 -5 15 -26 32 -56 46 -64 65 -36 94 24 26
50 34 29 9 -15 -18 1 -20 19 -2 11 10 12 8 3 -8 -13 -25 -12 -37 5 -54 12 -11
20 -11 53 4 36 16 40 16 56 1 10 -11 18 -39 21 -79 16 -231 23 -271 78 -438
43 -129 68 -186 112 -255 30 -49 75 -124 99 -167 36 -66 74 -108 259 -290 233
-229 224 -222 383 -263 l71 -18 183 33 c101 19 188 36 193 38 6 3 39 41 75 85
36 44 95 116 131 159 52 63 76 104 117 199 43 100 64 136 125 208 92 109 184
230 270 353 71 102 137 260 172 409 10 41 25 83 33 93 12 13 12 17 2 17 -11 0
-11 3 -2 12 6 6 30 13 52 14 49 2 100 32 79 45 -11 7 -10 11 6 23 11 9 28 16
38 17 9 1 21 2 26 3 19 2 139 147 144 173 4 19 19 36 46 52 22 14 45 35 52 48
7 12 21 25 31 29 30 9 78 55 78 74 0 10 -7 23 -15 30 -17 14 -21 35 -5 25 6
-3 9 4 8 19 -1 13 -5 23 -9 20 -15 -9 -20 17 -6 31 12 12 13 21 4 51 -8 27 -8
40 1 55 8 12 12 50 10 97 -1 43 2 84 6 90 4 7 6 27 5 45 -2 18 0 37 3 42 3 6
7 33 9 60 1 28 7 59 13 70 10 19 34 115 35 142 1 6 -12 14 -29 18 -23 5 -30
12 -30 30 0 47 -21 125 -32 119 -7 -4 -8 -2 -4 4 8 13 -28 123 -51 157 -7 11
-13 33 -13 50 0 16 -11 61 -25 99 -14 38 -25 76 -25 86 0 9 -11 38 -24 66 -45
94 -73 159 -85 196 -7 20 -37 76 -68 125 -30 48 -61 100 -69 114 -17 33 -272
221 -379 279 -44 24 -130 74 -191 111 -80 48 -149 79 -247 113 -120 41 -153
48 -265 57 -70 5 -136 10 -147 12 -11 1 -83 -1 -160 -6z m-1410 -2328 l-4 -32
24 23 c18 17 25 19 25 9 0 -8 -4 -19 -9 -24 -14 -17 -31 -100 -21 -103 6 -2
10 -15 10 -28 0 -13 4 -24 9 -24 16 0 25 22 23 52 -1 16 5 40 14 54 15 22 19
23 26 10 5 -9 18 -16 29 -16 12 0 23 -10 29 -26 7 -17 15 -24 25 -20 10 4 19
-2 24 -17 5 -13 16 -29 25 -36 9 -7 16 -18 16 -23 0 -6 7 -25 16 -44 9 -19 14
-37 11 -41 -3 -3 -25 4 -48 16 -48 25 -72 15 -67 -27 2 -20 -5 -30 -37 -48
-22 -13 -43 -23 -46 -24 -4 0 -12 21 -19 48 -7 26 -21 65 -31 87 -10 22 -21
56 -23 75 -3 19 -10 50 -16 68 -7 18 -9 39 -6 48 3 8 2 12 -4 9 -14 -9 -12 21
2 45 18 29 27 24 23 -11z m705 -204 c0 -2 -14 -21 -32 -42 -18 -21 -26 -33
-19 -26 8 6 21 9 30 6 14 -4 14 -3 1 6 -12 8 -11 11 5 16 17 6 42 16 80 34 6
2 0 -7 -12 -21 -27 -28 -29 -44 -8 -52 8 -3 15 -1 15 5 0 5 6 4 14 -3 11 -10
11 -16 2 -28 -8 -11 -3 -10 17 3 16 11 27 13 27 6 0 -7 10 -9 25 -7 14 3 25 1
25 -5 0 -5 9 -7 21 -4 16 4 19 2 14 -11 -5 -14 -4 -15 6 -4 7 6 21 12 32 12
10 0 16 4 13 9 -8 12 14 8 39 -7 11 -6 14 -12 7 -12 -9 0 -11 -7 -7 -20 5 -15
3 -18 -10 -14 -10 4 -15 2 -13 -6 2 -7 -5 -14 -14 -15 -15 -3 -16 0 -6 18 11
22 11 22 -11 3 -22 -20 -28 -46 -11 -46 5 0 6 -8 3 -17 -5 -13 -2 -15 12 -10
15 6 16 5 5 -8 -11 -13 -8 -15 16 -16 16 -1 35 -1 42 0 6 1 12 -4 12 -11 0
-10 2 -10 9 1 6 9 14 10 27 4 11 -5 38 -9 62 -9 31 1 42 -2 42 -13 0 -12 3
-12 12 -3 7 7 32 12 56 12 34 0 43 -3 39 -14 -4 -10 -1 -13 9 -9 7 3 21 2 30
-1 12 -5 11 -10 -10 -33 -25 -27 -56 -39 -56 -22 0 13 -57 11 -66 -2 -4 -7 -9
-8 -13 -1 -8 12 -134 26 -161 17 -11 -4 -20 -11 -20 -17 0 -5 7 -7 16 -4 8 3
12 2 9 -4 -3 -6 -2 -10 4 -10 6 0 8 -7 5 -15 -4 -8 -2 -15 4 -15 5 0 7 -11 4
-25 -3 -19 0 -25 12 -25 10 0 15 -4 12 -9 -8 -13 4 -42 15 -36 10 7 50 -31 41
-40 -4 -3 1 -3 11 1 18 6 24 24 8 24 -5 0 -11 10 -13 23 -4 25 11 67 24 67 4
0 8 7 8 15 0 8 4 15 10 15 10 0 53 -43 87 -88 43 -57 133 -48 181 18 20 27 29
31 60 29 33 -3 72 -29 72 -49 0 -12 -75 -77 -108 -93 -18 -9 -57 -19 -88 -23
-37 -4 -51 -9 -43 -15 15 -10 14 -10 -18 -14 -15 -2 -20 2 -16 13 5 12 2 12
-15 3 -26 -14 -27 -21 -7 -47 13 -17 14 -17 15 -1 0 20 25 23 34 5 5 -10 7
-10 12 -1 4 8 13 9 29 3 15 -6 27 -6 30 0 4 6 11 10 16 10 6 0 3 -7 -5 -16
-27 -27 -17 -27 17 -1 20 15 39 22 46 18 23 -14 66 2 106 41 40 38 72 54 42
20 -10 -10 -14 -22 -11 -25 4 -4 1 -13 -6 -22 -7 -8 -10 -15 -6 -15 13 0 61
36 63 48 3 14 -13 16 -22 2 -3 -5 -11 -10 -17 -10 -6 0 -4 8 5 18 10 10 14 22
10 26 -4 3 3 13 15 22 21 15 32 42 12 29 -6 -3 -7 1 -4 10 4 9 13 14 20 11 7
-3 11 0 8 8 -2 6 6 28 19 47 27 40 65 46 82 13 9 -19 13 -20 29 -9 18 14 50
10 41 -5 -2 -4 4 -18 15 -30 11 -13 20 -29 20 -37 0 -8 5 -11 10 -8 6 4 8 15
5 24 -3 10 1 24 9 30 8 7 12 19 9 26 -5 14 52 75 69 75 14 0 8 -17 -12 -35
-11 -10 -20 -22 -20 -28 0 -5 9 1 21 14 14 16 22 20 25 12 4 -10 11 -10 26 -2
17 9 17 6 -6 -27 -14 -21 -26 -49 -26 -61 0 -12 -4 -25 -10 -28 -15 -9 -12
-28 3 -22 25 10 -37 -95 -85 -145 -16 -16 -28 -34 -28 -41 0 -6 20 9 45 35 29
31 50 45 60 41 17 -6 9 -20 -42 -70 -28 -27 -32 -54 -5 -30 25 23 31 21 24 -5
-5 -21 -4 -22 13 -8 17 14 18 14 4 -9 -39 -65 -39 -65 -24 -74 11 -6 12 -14 5
-33 -13 -32 -12 -37 1 -28 8 5 8 1 0 -14 -6 -12 -16 -24 -21 -27 -6 -3 -10
-11 -10 -18 0 -8 3 -8 12 1 19 19 33 14 16 -5 -9 -10 -19 -28 -22 -40 -4 -13
-12 -23 -17 -23 -5 0 -9 -4 -9 -10 0 -10 51 9 61 23 4 5 9 5 13 -1 3 -6 -1
-17 -9 -25 -20 -21 -19 -27 6 -27 12 0 18 -4 13 -11 -12 -19 -15 -71 -4 -64
18 11 10 -15 -10 -32 -11 -10 -20 -22 -20 -27 0 -5 8 -2 18 7 10 10 21 17 24
17 9 0 1 -65 -10 -87 -6 -11 -9 -23 -6 -25 2 -3 -3 -11 -13 -19 -11 -9 -14
-10 -9 -1 4 6 2 12 -3 12 -6 0 -11 -4 -11 -10 0 -5 -18 -15 -39 -21 -28 -8
-41 -18 -43 -33 -2 -12 -10 -21 -18 -21 -9 0 -14 -8 -12 -18 2 -9 -1 -17 -7
-17 -10 0 -8 71 3 89 11 17 -3 31 -30 31 -17 0 -24 -5 -24 -20 0 -11 -7 -20
-15 -20 -8 0 -14 -3 -13 -7 2 -13 -14 -67 -25 -81 -5 -7 -10 -22 -11 -35 -1
-12 -7 -21 -14 -20 -6 2 -9 -3 -6 -11 3 -7 -1 -18 -8 -23 -30 -25 -248 -47
-315 -32 -37 8 -83 1 -83 -13 0 -5 4 -6 10 -3 5 3 10 1 10 -4 0 -6 6 -11 13
-11 8 0 22 -9 32 -20 10 -12 24 -19 31 -16 7 3 16 -4 19 -15 4 -12 13 -18 20
-15 19 7 26 -20 9 -35 -11 -9 -18 -8 -34 6 -19 17 -20 17 -39 -6 -11 -13 -20
-27 -21 -32 0 -4 -12 -12 -26 -18 -15 -5 -24 -12 -21 -16 6 -6 -29 -62 -46
-74 -5 -4 -5 -9 0 -12 6 -4 19 3 31 13 28 26 33 25 23 -2 -5 -13 -14 -22 -21
-20 -6 1 -9 -1 -6 -6 8 -14 -30 -41 -45 -32 -7 5 -17 6 -21 4 -4 -3 -8 -1 -8
5 0 6 -7 8 -15 5 -8 -4 -15 -1 -15 4 0 6 -8 12 -17 14 -15 3 -9 13 27 51 25
26 49 47 54 47 5 0 19 8 30 17 17 16 17 14 -3 -15 -13 -18 -20 -36 -17 -39 3
-4 6 -1 6 5 0 6 9 14 20 17 11 4 18 10 15 15 -3 4 2 13 10 20 17 14 21 35 5
25 -5 -3 -10 -2 -10 3 0 14 -47 2 -63 -17 -104 -117 -137 -134 -147 -76 -4 25
1 35 33 64 21 18 35 36 32 39 -3 3 2 17 11 31 14 22 11 21 -19 -8 -22 -21 -33
-39 -30 -49 5 -10 2 -13 -6 -8 -7 5 -20 1 -29 -6 -36 -31 -45 -33 -38 -5 4 16
2 27 -6 29 -10 4 -10 10 0 32 l12 28 -32 -23 c-17 -13 -28 -18 -24 -11 4 7 1
12 -7 12 -11 0 -13 7 -9 23 5 21 4 21 -14 5 -14 -12 -24 -14 -37 -6 -18 9 -18
11 -1 29 12 13 14 23 7 30 -7 7 -14 5 -23 -6 -7 -8 -17 -15 -23 -15 -6 0 0 12
14 26 l24 27 -23 -12 c-27 -14 -32 -11 -35 16 -1 15 -7 18 -28 15 -24 -4 -27
-1 -22 17 3 12 1 21 -6 21 -18 0 -26 -4 -24 -12 2 -4 -4 -5 -12 -2 -10 4 -12
12 -5 29 7 20 6 22 -11 18 -15 -4 -18 -2 -12 12 4 13 3 16 -5 11 -7 -4 -13 -2
-13 3 -1 6 -2 14 -3 19 0 4 -11 18 -24 32 -14 15 -20 31 -16 43 5 16 2 18 -15
12 -15 -5 -21 -2 -21 10 0 9 -12 27 -26 40 -16 15 -24 31 -20 40 3 9 2 14 -3
11 -12 -8 -25 23 -22 52 2 16 -3 22 -19 22 -12 0 -18 5 -15 10 3 6 1 10 -5 10
-7 0 -10 7 -6 15 3 8 1 15 -3 15 -5 0 -8 12 -6 26 3 27 -15 74 -28 74 -5 0 -6
4 -2 10 3 5 11 8 18 6 7 -1 9 -1 5 1 -5 3 -8 11 -8 19 0 8 -6 11 -15 8 -21 -9
-19 10 5 31 35 32 20 86 -19 66 -17 -10 -21 -9 -21 4 0 8 5 15 10 15 6 0 10 5
10 11 0 5 -4 8 -9 4 -6 -3 -9 3 -8 14 0 11 4 19 8 18 4 -1 7 1 8 6 3 25 -1 28
-19 12 -11 -10 -17 -23 -13 -29 4 -7 1 -7 -7 1 -10 9 -8 19 10 47 12 20 31 43
43 51 11 8 18 17 16 20 -3 2 -16 -5 -28 -16 -36 -34 -34 -16 3 32 19 24 34 44
33 46 -7 6 -47 -10 -47 -19 0 -16 -28 -39 -35 -28 -3 5 -2 10 3 10 5 0 12 10
15 23 2 12 8 29 11 38 5 11 1 19 -9 23 -9 3 -13 2 -10 -3 3 -5 1 -12 -4 -15
-5 -3 -11 1 -15 9 -3 8 -1 15 3 15 12 0 81 96 81 112 0 6 -7 3 -16 -8 -8 -10
-13 -14 -10 -8 3 7 -1 15 -10 18 -11 4 -13 12 -8 28 6 21 5 21 -10 9 -10 -8
-2 10 16 40 18 30 67 86 108 124 123 116 151 145 141 145 -6 0 -44 -29 -84
-65 -41 -35 -78 -61 -82 -57 -5 4 -5 2 -2 -4 4 -7 -4 -19 -18 -28 -28 -18 -34
-6 -9 19 9 9 14 19 11 22 -4 3 14 29 38 57 50 56 61 85 17 43 -39 -38 -48 -34
-17 7 15 19 32 33 40 30 7 -3 34 17 60 45 46 49 55 57 55 46z m-504 -160 c-3
-9 4 -21 19 -31 14 -9 25 -23 25 -31 0 -10 7 -14 20 -10 25 6 51 -18 43 -40
-4 -9 -15 -25 -26 -36 -16 -16 -19 -17 -14 -4 3 9 2 17 -3 17 -10 0 -14 -14
-11 -39 2 -7 -2 -10 -9 -6 -15 9 -56 -11 -92 -44 -15 -13 -31 -22 -35 -18 -9
10 28 48 40 40 5 -3 7 -1 3 5 -3 5 0 12 6 15 7 2 10 8 5 12 -4 5 -20 -4 -36
-19 -25 -24 -29 -25 -42 -10 -8 10 -12 36 -11 68 1 41 7 55 28 74 l27 23 17
-26 c10 -15 20 -22 24 -17 3 6 2 12 -3 14 -18 7 -22 46 -6 62 21 20 39 21 31
1z"/>
<path d="M2078 1762 c-47 -47 -92 -127 -50 -89 18 16 18 16 14 -16 l-4 -32 32
43 c30 40 55 56 44 29 -3 -9 4 -12 23 -11 15 1 28 2 28 3 0 1 13 4 28 6 24 3
27 1 21 -17 -4 -15 -3 -18 6 -13 7 4 16 2 20 -6 7 -10 11 -10 24 0 8 7 19 10
24 7 6 -3 14 0 20 7 13 17 11 46 -3 40 -9 -3 -11 4 -7 23 4 23 2 25 -17 19
-16 -5 -20 -3 -15 8 3 10 -2 18 -15 22 -12 3 -21 11 -21 16 0 5 -24 9 -52 9
-50 0 -56 -3 -100 -48z"/>
</g>
</svg>
